<svg width="42" height="41" viewBox="0 0 42 41" fill="none" xmlns="http://www.w3.org/2000/svg">
<path d="M38.5067 20.9112C38.5067 19.4423 38.3851 18.3704 38.1219 17.2588H21.0063V23.8886H31.0528C30.8503 25.5362 29.7565 28.0175 27.3259 29.6848L27.2918 29.9067L32.7034 34.0152L33.0783 34.0519C36.5216 30.9354 38.5067 26.35 38.5067 20.9112Z" fill="#4285F4"/>
<path d="M21.0053 38.3792C25.9272 38.3792 30.0591 36.7911 33.0772 34.0519L27.3248 29.6847C25.7854 30.7368 23.7194 31.4712 21.0053 31.4712C16.1846 31.4712 12.0931 28.3548 10.6346 24.0474L10.4209 24.0652L4.7938 28.333L4.72021 28.5334C7.71792 34.3693 13.8755 38.3792 21.0053 38.3792Z" fill="#34A853"/>
<path d="M10.6357 24.0476C10.2509 22.936 10.0282 21.745 10.0282 20.5143C10.0282 19.2835 10.2509 18.0926 10.6155 16.981L10.6053 16.7443L4.90771 12.408L4.72129 12.4949C3.48579 14.9166 2.77686 17.6361 2.77686 20.5143C2.77686 23.3926 3.48579 26.1119 4.72129 28.5336L10.6357 24.0476Z" fill="#FBBC05"/>
<path d="M21.0054 9.55691C24.4284 9.55691 26.7375 11.006 28.0541 12.2169L33.1989 7.29406C30.0392 4.41582 25.9273 2.64917 21.0054 2.64917C13.8755 2.64917 7.71794 6.65883 4.72021 12.4947L10.6144 16.9808C12.0932 12.6734 16.1847 9.55691 21.0054 9.55691Z" fill="#EB4335"/>
</svg>
